inDegrees=no
num_controls=7
num_derivatives=13
num_iterations=94
num_multipliers=7
num_parameters=0
num_slacks=7
num_states=26
objective=0.275975
objective_accelerations=0.000000
objective_balance=0.004842
objective_effort=0.071033
objective_height=0.200099
objective_ligament=0.000000
solver_duration=1209.802677
status=Solve_Succeeded
success=true
DataType=double
version=3
OpenSimVersion=4.5
endheader
time	/jointset/ground_pelvis/pelvis_tilt/value	/jointset/ground_pelvis/pelvis_tx/value	/jointset/ground_pelvis/pelvis_ty/value	/jointset/hip_l/hip_flexion_l/value	/jointset/hip_l/hip_adduction_l/value	/jointset/hip_l/hip_rotation_l/value	/jointset/back/lumbar_extension/value	/jointset/patellofemoral_l/patellar_flexion_l/value	/jointset/knee_l/knee_flexion_l/value	/jointset/knee_l/knee_adduction_l/value	/jointset/knee_l/knee_rotation_l/value	/jointset/ankle_l/ankle_angle_l/value	/jointset/subtalar_l/subtalar_angle_l/value	/jointset/ground_pelvis/pelvis_tilt/speed	/jointset/ground_pelvis/pelvis_tx/speed	/jointset/ground_pelvis/pelvis_ty/speed	/jointset/hip_l/hip_flexion_l/speed	/jointset/hip_l/hip_adduction_l/speed	/jointset/hip_l/hip_rotation_l/speed	/jointset/back/lumbar_extension/speed	/jointset/patellofemoral_l/patellar_flexion_l/speed	/jointset/knee_l/knee_flexion_l/speed	/jointset/knee_l/knee_adduction_l/speed	/jointset/knee_l/knee_rotation_l/speed	/jointset/ankle_l/ankle_angle_l/speed	/jointset/subtalar_l/subtalar_angle_l/speed	/forceset/tau_hip_flexion_l	/forceset/tau_hip_adduction_l	/forceset/tau_hip_rotation_l	/forceset/tau_knee_flexion_l	/forceset/tau_ankle_angle_l	/forceset/tau_subtalar_angle_l	/forceset/tau_lumbar_extension	lambda_cid13_p0	lambda_cid13_p1	lambda_cid13_p2	lambda_cid13_p3	lambda_cid13_p4	lambda_cid13_p5	lambda_cid14_p0	/jointset/ground_pelvis/pelvis_tilt/accel	/jointset/ground_pelvis/pelvis_tx/accel	/jointset/ground_pelvis/pelvis_ty/accel	/jointset/hip_l/hip_flexion_l/accel	/jointset/hip_l/hip_adduction_l/accel	/jointset/hip_l/hip_rotation_l/accel	/jointset/back/lumbar_extension/accel	/jointset/patellofemoral_l/patellar_flexion_l/accel	/jointset/knee_l/knee_flexion_l/accel	/jointset/knee_l/knee_adduction_l/accel	/jointset/knee_l/knee_rotation_l/accel	/jointset/ankle_l/ankle_angle_l/accel	/jointset/subtalar_l/subtalar_angle_l/accel	gamma_cid13_p0	gamma_cid13_p1	gamma_cid13_p2	gamma_cid13_p3	gamma_cid13_p4	gamma_cid13_p5	gamma_cid14_p0
0.5	-0.06430744429673635	-0.08289500324083901	0.415146884198567	2.094004192712737	-0.2915829654863278	0.1244680835250595	-0.9068380231701376	2.094309009726669	2.094309009726676	0.174018346176743	-0.1740131370575772	0.2107286778023405	0.0807899313978295	0.3354716873971539	-0.1258399502786061	-0.04911775069799355	-0.008044336340699447	0.04399190795137289	0.01790616989244929	-1.113707515250132	-0.001820293261097347	-0.001820293261098264	-0.004065623201976711	0.01124692734004916	-0.3456731451453733	-0.09888402970297096	-0.3882442361259806	-0.06878556116151961	-0.06072682337435364	-0.3910279251282821	0.2764664960741672	-0.01939300562181831	0.5121625459998659	33.64069828471403	13.50201469236855	-15.13713338460063	-102.4447975998406	-877.8582168043985	-2.719032382003316	-0.01918358866243853	-3.516647386407563	2.414610922982417	1.251027061088502	-3.16657983903597	-1.422976661140013	-0.2198809038879249	12.08526336313198	0.2663141428158005	0.2663141428157731	-0.2483036157719413	-1.059457598957231	7.33789362886129	1.529674861238537	1.916660526194037e-07	5.473028014328393e-07	-2.787860367595308e-07	-4.104354341863183e-07	4.513394444845645e-07	1.18175421593079e-06	-7.671964645464104e-08
0.51	-0.06116279368054536	-0.08403738185131406	0.4147108277436061	2.093820173452968	-0.291205706909819	0.1246325489237187	-0.9173409111468566	2.094300813320903	2.094300813320953	0.1739712817600389	-0.1739426190227887	0.2076132639381804	0.07987651071890735	0.2899290556717036	-0.103076628911617	-0.03885906981774518	-0.02317288544583056	0.03228275990797146	0.01465986398754898	-0.9836939377116735	-0.0001377612267081572	-0.0001377612267089356	-0.004785285734383275	0.003910445430885178	-0.2799581277489259	-0.0839256000462503	-0.3797714355660227	-0.06614688653162774	-0.06083053346570846	-0.3883029383710598	0.267178351449629	-0.01873645101489415	0.5050572808474212	31.03219682531955	13.48204094299736	-14.91514019966225	-92.3422169544386	-866.6341338102756	-3.592612776421994	-0.01997470824036462	-5.60248882647456	2.140907818610044	0.7985710971237849	0.1520165148117066	-0.9214423158509192	-0.4260586519096413	13.93582630640692	0.07143147960427673	0.07143147960432353	0.1004928467386172	-0.412657602334919	5.806070615765968	1.460070559667279	1.5277575799638e-07	1.153497502335947e-07	2.869648647123761e-08	-4.767373079388369e-07	4.776157483033319e-07	4.718145043037323e-07	-8.890326697353957e-08
0.52	-0.05857945293377997	-0.08496538423310861	0.4143544145965734	2.093652470494354	-0.2909208515017282	0.1247547406197028	-0.926448379076749	2.09429988398465	2.094299883984689	0.1739338788017475	-0.1739138486301716	0.2050785532121306	0.07910890304490796	0.2232097135118177	-0.08296470454250827	-0.03318908911232821	-0.004781076108427689	0.02551127426814063	0.00945142935790697	-0.8346235058850576	-0.0003668793581652907	-0.0003668793581657719	-0.002133331518243919	0.002897398904163263	-0.2295325175232978	-0.06972142871839188	-0.3712986350060651	-0.06350821190173568	-0.06093424355706342	-0.3855779516138391	0.2578902068250908	-0.01807989640796965	0.4979520156949778	28.45170010054567	13.46823483952406	-14.70677450652941	-82.73933479705659	-855.2890026115678	-4.370787939046357	-0.02075185320256246	-7.751989473294621	1.884331523406354	0.3332870261221744	3.537491849470948	-0.4354441804259121	-0.6123066488362335	15.89663422076345	-0.116015890353294	-0.1160158903532909	0.4260197339372657	0.2052294775311492	4.280012194697473	1.378823195466077	-4.32633752434271e-08	8.667738269593618e-08	-1.232176582066896e-08	1.396215166877486e-07	3.119306876278214e-07	1.768388005113433e-07	-1.854361259277539e-08
0.53	-0.05669235486043677	-0.08570276044865115	0.4140441260331567	2.09373444683262	-0.2906909024636066	0.1248209546631572	-0.93405818803964	2.094292082121251	2.094292082121304	0.173930569164505	-0.1738802253119603	0.2030039828541482	0.07847914638990519	0.1583163028506014	-0.06468771506826879	-0.02839885135197642	0.01664069139687877	0.02011655633520662	0.004105748380557473	-0.6929380111768672	-0.001010953390647118	-0.001010953390647358	0.001060702730050467	0.003201360497504393	-0.1847060839187614	-0.05640307103357504	-0.3676497625010645	-0.06209392267833072	-0.06082214005047215	-0.3820450975463121	0.2512267511453682	-0.01736263645190618	0.4871969920369481	26.73950560668711	13.31073612825524	-14.51514297504996	-77.11923186423074	-846.1070816336548	-4.703053228489291	-0.02054714930306025	-5.24204567234765	1.772898857232429	0.6224029646297981	0.764176947161716	-0.6457613867411098	-0.4485419113939627	12.4645484232069	-0.01122585246067519	-0.01122585246064124	0.2044942629459532	-0.1509111512761735	4.685253359474923	1.282363100642455	-1.028954286634015e-07	1.997666029787912e-08	1.638280773051502e-08	3.02454521820483e-07	2.422273493685517e-07	-5.965652651743397e-09	1.873814740353629e-09
